# xmcd CD database file
#
# Track frame offsets:
#	150
#	20697
#	61047
#	90477
#	132570
#	176062
#	242242
#	303702
#
# Disc length: 4228 seconds
#
# Revision: 0
# Processed by: cddbd v1.5.1PL0 Copyright (c) Steve Scherf et al.
# Submitted via: CDex 1.50
#
DISCID=6b108208
DTITLE=Jazz and Dintorni # 52 - Joe Henderson
DYEAR=1900
DGENRE=Jazz
TTITLE0=Miles Ahead
TTITLE1=Ten
TTITLE2=Johnny Come Lately
TTITLE3=Blue Bossa
TTITLE4=Inner Urge
TTITLE5=Straight, No Chasey
TTITLE6=Autumn Leaves
TTITLE7=The Theme
EXTD=
EXTT0=
EXTT1=
EXTT2=
EXTT3=
EXTT4=
EXTT5=
EXTT6=
EXTT7=
PLAYORDER=
